<svg id="github" xmlns="http://www.w3.org/2000/svg" width="192" height="187.263" viewBox="0 0 192 187.263">
  <g id="Group_61" data-name="Group 61">
    <path id="Path_28" data-name="Path 28" d="M96,0A96,96,0,0,0,65.64,187.08c4.8.84,6.6-2.04,6.6-4.56,0-2.28-.12-9.84-.12-17.88-24.12,4.44-30.36-5.88-32.28-11.28-1.08-2.76-5.76-11.28-9.84-13.56-3.36-1.8-8.16-6.24-.12-6.36,7.56-.12,12.96,6.96,14.76,9.84,8.64,14.52,22.44,10.44,27.96,7.92.84-6.24,3.36-10.44,6.12-12.84-21.36-2.4-43.68-10.68-43.68-47.4a37.361,37.361,0,0,1,9.84-25.8c-.96-2.4-4.32-12.24.96-25.44,0,0,8.04-2.52,26.4,9.84a90.509,90.509,0,0,1,48,0c18.36-12.48,26.4-9.84,26.4-9.84,5.28,13.2,1.92,23.04.96,25.44a37.144,37.144,0,0,1,9.84,25.8c0,36.84-22.44,45-43.8,47.4,3.48,3,6.48,8.76,6.48,17.76,0,12.84-.12,23.16-.12,26.4,0,2.52,1.8,5.52,6.6,4.56A96.051,96.051,0,0,0,96,0Z"/>
  </g>
</svg>
