<svg id="globe" xmlns="http://www.w3.org/2000/svg" width="192" height="192" viewBox="0 0 192 192">
  <path id="Path_33" data-name="Path 33" d="M96,0a96,96,0,1,0,96,96A96,96,0,0,0,96,0ZM72.2,26.018a87.8,87.8,0,0,0,12.4,5.343,42.6,42.6,0,0,0,14.219,2.523,16.519,16.519,0,0,0,9.884-3.027c2.854-1.71,5.615-3.075,9.277-2.723,3.762.411,7.724,1.706,11.7,1.921A82.994,82.994,0,0,1,144.2,40.134q-3.428.2-7.264.711a54.287,54.287,0,0,0-7.459,1.508,32.705,32.705,0,0,0-6.657,2.626,10.864,10.864,0,0,0-4.438,4.03,35.333,35.333,0,0,0-3.124,6.152c-1.245,3.485-.951,9.044-3.83,11.6a6.1,6.1,0,0,0-1.514,1.41,3.029,3.029,0,0,0-.5,2.116,11.263,11.263,0,0,0,1.313,3.733,17.5,17.5,0,0,1,1,3.428,12.475,12.475,0,0,0,7.465-2.018l13.313,1.21c3.437-3.871,7.441-3.935,10.888,0a22.71,22.71,0,0,1,3.429,4.845l-5.647,3.83a20.1,20.1,0,0,1-4.839-2.419q-1.409-.807-2.827-1.818c-5.365-2.6-15.872.428-21.781.808-.77,1.541-1.391,3.05-3.222,3.429-.318,1-.011,2.067-.407,3.028a17.256,17.256,0,0,0-2.62,12.705q2.218,10.487,10.888,10.486h2.219a29.819,29.819,0,0,1,5.951.4c1.143.269,1.714.473,1.714.608a6.826,6.826,0,0,0-.705,3.83c.666,3.02,2.845,5.305,2.62,8.571-.209,4.155-1.515,7.737-.1,11.9,1.617,4.041,3.647,8.43,5.143,12.6a3.905,3.905,0,0,0,2.723,2.219q3.63.605,9.076-4.839a17.164,17.164,0,0,0,4.638-9.684c.532-3.094,2.714-5.843,3.429-9.076v-2.62a39.414,39.414,0,0,0,1.714-3.933,25.17,25.17,0,0,0,.906-6.352c2.114-2.114,4.176-4,5.648-6.657a5.144,5.144,0,0,0,.808-4.231,2.131,2.131,0,0,0-1.009-.808l-3.028-1.21c.052-1.691,3.16-1.439,4.638-1.21l7.258-4.438a79.68,79.68,0,0,1-5.343,26.523,70.423,70.423,0,0,1-14.62,23.088,73.229,73.229,0,0,1-68.17,22.59c2.2-3.885,3.468-8.262,6.055-12.1a13.042,13.042,0,0,1,.906-5.143c2.567-5.938,6.755-7.484,11.6-12.1,4.888-5.094,4.842-11.114,5.04-18.456-.067-4.647-7.5-7.5-10.894-10.085-7.872-5.305-12.871-13.11-24.1-10.79-4.012.409-4.983,1.189-7.97-1.307l-1.21-.608.1-.4.5-1.009c1.2-1.26-.506-2.845-2.122-2.322a5.63,5.63,0,0,1-1.106.1c-.369-1.8-1.577-3.477-1.818-5.447a37.425,37.425,0,0,0,4.845,3.331,17.3,17.3,0,0,0,3.429,1.514,4.166,4.166,0,0,0,2.419.4q2.219-.4,2.517-4.438a49.5,49.5,0,0,0-.3-9.277,4.537,4.537,0,0,0,.8-1.617C72,71.709,75.768,73.321,81.477,71.2q1.412-.807.6-2.018c0-.135-.03-.2-.1-.2s-.1-.072-.1-.207c3.1-1.559,4.932-4.75,6.857-7.66a18.276,18.276,0,0,0-7.058-6.255c-1.54-1.9-7.584-.735-8.875-3.83a7.821,7.821,0,0,1-2.42-.608c-5.445-3.529-7.745-9.7-13.611-12.2a34.357,34.357,0,0,0-6.96.1A71.729,71.729,0,0,1,72.2,26.018ZM23.192,82.894a24.625,24.625,0,0,0,4.438,5.447c9.072,8.334,17.6,10.1,29.24,14.316a23.191,23.191,0,0,1,2.219,2.018c1.268.963,2.342,2.116,3.635,3.027a18.392,18.392,0,0,1-.3,2.821,30.429,30.429,0,0,0-.1,5.848c.389,7.483,6.559,13.406,8.268,20.571-1.515,9.286-1.537,18.413-2.62,27.629a72.326,72.326,0,0,1-24.1-16.134,73.678,73.678,0,0,1-16.036-24.4,76.935,76.935,0,0,1-5.143-20.474,78.718,78.718,0,0,1,.5-20.669Z"/>
</svg>
