<svg id="instagram" xmlns="http://www.w3.org/2000/svg" width="192" height="192" viewBox="0 0 192 192">
  <g id="Group_60" data-name="Group 60">
    <path id="Path_27" data-name="Path 27" d="M96,0C69.948,0,66.672.12,56.436.576,46.2,1.056,39.228,2.664,33.12,5.04a47,47,0,0,0-17,11.076,47.124,47.124,0,0,0-11.076,17c-2.376,6.1-4,13.08-4.464,23.28C.12,66.66,0,69.924,0,96.012c0,26.064.12,29.328.576,39.564.48,10.224,2.088,17.2,4.464,23.3a49.148,49.148,0,0,0,28.068,28.08c6.12,2.376,13.08,4,23.3,4.464C66.66,191.88,69.924,192,96,192s29.328-.12,39.576-.576c10.212-.48,17.208-2.088,23.316-4.464a49.147,49.147,0,0,0,28.068-28.08c2.364-6.108,3.984-13.08,4.464-23.3.456-10.236.576-13.5.576-39.576s-.12-29.34-.576-39.588c-.48-10.212-2.1-17.2-4.464-23.292a47.112,47.112,0,0,0-11.076-17,46.932,46.932,0,0,0-17-11.076c-6.12-2.376-13.1-4-23.316-4.464C125.316.12,122.064,0,95.976,0h.036ZM87.4,17.3h8.616c25.632,0,28.668.084,38.784.552,9.36.42,14.448,1.992,17.832,3.3a29.786,29.786,0,0,1,11.04,7.188,29.661,29.661,0,0,1,7.176,11.04c1.32,3.372,2.88,8.46,3.3,17.82.468,10.116.564,13.152.564,38.772s-.1,28.668-.564,38.784c-.42,9.36-1.992,14.436-3.3,17.82a31.818,31.818,0,0,1-18.228,18.2c-3.36,1.32-8.448,2.88-17.82,3.312-10.116.456-13.152.564-38.784.564s-28.68-.108-38.8-.564c-9.36-.432-14.436-1.992-17.82-3.312a29.736,29.736,0,0,1-11.04-7.176,29.76,29.76,0,0,1-7.2-11.04c-1.308-3.372-2.88-8.46-3.3-17.82-.456-10.116-.552-13.152-.552-38.8s.1-28.656.552-38.772c.432-9.36,1.992-14.448,3.312-17.832a29.786,29.786,0,0,1,7.188-11.04A29.661,29.661,0,0,1,39.4,21.132c3.384-1.32,8.46-2.88,17.82-3.312,8.856-.408,12.288-.528,30.18-.54V17.3ZM147.252,33.24a11.52,11.52,0,1,0,11.52,11.52,11.52,11.52,0,0,0-11.52-11.52ZM96.012,46.7A49.305,49.305,0,1,0,145.32,96.009,49.3,49.3,0,0,0,96.012,46.7Zm0,17.292a32,32,0,1,1-32,32A32,32,0,0,1,96.012,64Z"/>
  </g>
</svg>
