<?xml version="1.0" encoding="UTF-8"?>
<svg version="1.1" xmlns="http://www.w3.org/2000/svg" width="365" height="148">
<path d="M0 0 C0.81251581 -0.00297112 1.62503161 -0.00594224 2.46216911 -0.0090034 C5.18254847 -0.01766911 7.9028837 -0.01919686 10.62327576 -0.02069092 C12.5749623 -0.0253207 14.52664793 -0.03034557 16.47833252 -0.03573608 C21.78032563 -0.04884904 27.08230608 -0.05530321 32.38431287 -0.05974674 C35.69961991 -0.06268002 39.0149235 -0.06678537 42.33022881 -0.07125092 C52.71101953 -0.08492463 63.09180237 -0.09459119 73.47260147 -0.09845281 C85.4402584 -0.10292956 97.40780088 -0.12046024 109.37542301 -0.1494534 C118.6350851 -0.17110421 127.89471508 -0.18115895 137.1544022 -0.18249393 C142.68017442 -0.18353977 148.20583906 -0.18940022 153.73158455 -0.20731354 C158.93464314 -0.22385239 164.13751394 -0.22592156 169.34058952 -0.21717453 C171.2432137 -0.21640719 173.14584822 -0.22070659 175.04844666 -0.23063278 C191.53828351 -0.31157051 206.6858987 0.96860793 219.19920349 12.89044189 C223.32343528 17.25385327 226.58260609 21.58452401 228.88670349 27.14044189 C229.39411072 28.32388184 229.90151794 29.50732178 230.42430115 30.72662354 C232.81219184 37.99723577 232.33855924 45.69107254 232.32029724 53.25762939 C232.32486715 54.92235526 232.33017511 56.58707924 232.33618164 58.25180054 C232.34508178 61.72989598 232.34272566 65.20776144 232.33274841 68.68585205 C232.32127047 73.11613502 232.34146768 77.54561948 232.37066555 81.97579765 C232.38912127 85.41105084 232.38871643 88.84611602 232.38302803 92.2814064 C232.38287592 93.91348515 232.38882811 95.54557754 232.4013195 97.17760849 C232.50476533 112.90780758 229.02400652 124.53853111 218.26170349 136.32794189 C207.55553569 146.56418248 194.33471517 148.45216134 180.14848328 148.40113831 C179.00642229 148.40496385 177.8643613 148.4087894 176.6876924 148.41273087 C172.88191155 148.42300407 169.07628317 148.41907947 165.27049255 148.4151001 C162.53314278 148.41835818 159.79580133 148.42456977 157.05845642 148.43058777 C150.40691757 148.44330377 143.75541914 148.44513228 137.10387018 148.44278751 C131.69327838 148.44100045 126.2826988 148.44276228 120.87210846 148.44701195 C119.71455227 148.44790473 119.71455227 148.44790473 118.5336111 148.44881555 C116.96558668 148.45002738 115.39756226 148.45124151 113.82953784 148.45245793 C99.14075769 148.46332186 84.45200052 148.46117661 69.76321909 148.45507308 C56.34877481 148.44990686 42.93440321 148.46115361 29.51997331 148.4801713 C15.72213084 148.49958146 1.92432271 148.50780001 -11.87353349 148.50404805 C-19.61033664 148.50214057 -27.34707797 148.50457901 -35.08386993 148.51876259 C-41.67159633 148.53071807 -48.25922287 148.53203496 -54.84695074 148.51997242 C-58.2027027 148.51411227 -61.55812399 148.51455328 -64.91388702 148.52497482 C-85.66718174 148.58475503 -104.06738665 148.48378341 -120.04689026 133.39044189 C-129.5369653 123.05720328 -133.75032095 110.76953256 -133.5158844 96.88531494 C-133.01142021 85.09400031 -128.49648823 74.95778498 -119.86329651 66.82794189 C-109.58962244 58.30956892 -98.62159773 55.83560627 -85.51954651 55.90216064 C-83.72917428 55.88674886 -81.93880953 55.87044581 -80.14845276 55.85333252 C-77.37728574 55.83689298 -74.60667631 55.82795877 -71.83546448 55.83502197 C-55.81865314 56.09864108 -55.81865314 56.09864108 -42.23536682 48.40093994 C-36.61311976 42.50497358 -35.11365429 36.74595089 -34.23829651 28.82794189 C-33.01811521 18.85984792 -30.09544515 11.89086689 -22.16407776 5.54278564 C-15.24193133 0.80935599 -8.22057798 -0.00942892 0 0 Z " fill="#FFFFFF" transform="translate(133.11329650878906,-0.14044189453125)"/>
</svg>
