<?xml version="1.0" encoding="UTF-8"?>
<svg id="Layer_2" xmlns="http://www.w3.org/2000/svg" viewBox="0 0 133.7 133.7">
  <defs>
    <style>
      .cls-1 {
        fill: none;
        isolation: isolate;
        stroke: #111;
        stroke-miterlimit: 10;
      }

      .cls-2 {
        fill: #231f20;
        font-family: DMSans18pt-SemiBold, 'DM Sans 18pt';
        font-size: 11.06px;
        font-weight: 600;
      }
    </style>
  </defs>
  <g id="Layer_1-2" data-name="Layer_1">
    <circle class="cls-1" cx="66.85" cy="66.85" r="66.35"/>
    <text class="cls-2" transform="translate(71.03 21.91) rotate(9.32)"><tspan x="0" y="0">E</tspan></text>
    <text class="cls-2" transform="translate(80.47 23.78) rotate(22.09)"><tspan x="0" y="0">X</tspan></text>
    <text class="cls-2" transform="translate(89.97 28.07) rotate(35.1)"><tspan x="0" y="0">P</tspan></text>
    <text class="cls-2" transform="translate(97.87 34.08) rotate(47.3)"><tspan x="0" y="0">L</tspan></text>
    <text class="cls-2" transform="translate(103.62 40.53) rotate(59.87)"><tspan x="0" y="0">O</tspan></text>
    <text class="cls-2" transform="translate(109.15 51.05) rotate(73.85)"><tspan x="0" y="0">R</tspan></text>
    <text class="cls-2" transform="translate(111.59 60.86) rotate(86.51)"><tspan x="0" y="0">E</tspan></text>
    <text class="cls-2" transform="translate(111.73 70.55) rotate(96.41)"><tspan x="0" y="0"> </tspan></text>
    <text class="cls-2" transform="translate(111.08 76.52) rotate(108.41)"><tspan x="0" y="0">M</tspan></text>
    <text class="cls-2" transform="translate(106.55 88.52) rotate(124.19)"><tspan x="0" y="0">O</tspan></text>
    <text class="cls-2" transform="translate(99.46 98.07) rotate(138.11)"><tspan x="0" y="0">R</tspan></text>
    <text class="cls-2" transform="translate(91.69 104.52) rotate(150.6)"><tspan x="0" y="0">E</tspan></text>
    <text class="cls-2" transform="translate(83.03 108.89) rotate(160.63)"><tspan x="0" y="0"> </tspan></text>
    <text class="cls-2" transform="translate(77.3 110.76) rotate(170.63)"><tspan x="0" y="0">-</tspan></text>
    <text class="cls-2" transform="translate(67.77 111.88) rotate(-179.39)"><tspan x="0" y="0"> </tspan></text>
    <text class="cls-2" transform="translate(61.74 111.69) rotate(-169.51)"><tspan x="0" y="0">E</tspan></text>
    <text class="cls-2" transform="translate(52.35 109.63) rotate(-156.73)"><tspan x="0" y="0">X</tspan></text>
    <text class="cls-2" transform="translate(42.94 105.15) rotate(-143.73)"><tspan x="0" y="0">P</tspan></text>
    <text class="cls-2" transform="translate(35.15 98.96) rotate(-131.5)"><tspan x="0" y="0">L</tspan></text>
    <text class="cls-2" transform="translate(29.53 92.4) rotate(-118.95)"><tspan x="0" y="0">O</tspan></text>
    <text class="cls-2" transform="translate(24.23 81.77) rotate(-104.96)"><tspan x="0" y="0">R</tspan></text>
    <text class="cls-2" transform="translate(21.99 71.92) rotate(-92.32)"><tspan x="0" y="0">E</tspan></text>
    <text class="cls-2" transform="translate(22.05 62.21) rotate(-82.41)"><tspan x="0" y="0"> </tspan></text>
    <text class="cls-2" transform="translate(22.82 56.25) rotate(-70.38)"><tspan x="0" y="0">M</tspan></text>
    <text class="cls-2" transform="translate(27.59 44.37) rotate(-54.64)"><tspan x="0" y="0">O</tspan></text>
    <text class="cls-2" transform="translate(34.9 34.95) rotate(-40.69)"><tspan x="0" y="0">R</tspan></text>
    <text class="cls-2" transform="translate(42.8 28.66) rotate(-28.19)"><tspan x="0" y="0">E</tspan></text>
    <text class="cls-2" transform="translate(51.55 24.48) rotate(-18.17)"><tspan x="0" y="0"> </tspan></text>
    <text class="cls-2" transform="translate(57.32 22.73) rotate(-8.17)"><tspan x="0" y="0">-</tspan></text>
    <text class="cls-2" transform="translate(66.86 21.81) rotate(1.79)"><tspan x="0" y="0"> </tspan></text>
  </g>
</svg>