<svg id="star" xmlns="http://www.w3.org/2000/svg" width="199.68" height="190.44" viewBox="0 0 199.68 190.44">
  <path id="Path_32" data-name="Path 32" d="M199.68,73.8q0,2.64-3.12,5.76L153,122.04l10.32,60a18.143,18.143,0,0,1,.12,2.4,7.069,7.069,0,0,1-1.26,4.26,4.238,4.238,0,0,1-3.66,1.74,9.709,9.709,0,0,1-4.8-1.44L99.84,160.68,45.96,189a10.2,10.2,0,0,1-4.8,1.44,4.363,4.363,0,0,1-3.78-1.74,7.069,7.069,0,0,1-1.26-4.26,19.483,19.483,0,0,1,.24-2.4l10.32-60L3,79.56Q0,76.32,0,73.8q0-4.44,6.72-5.52l60.24-8.76,27-54.6Q96.24,0,99.84,0t5.88,4.92l27,54.6,60.24,8.76Q199.68,69.36,199.68,73.8Z"/>
</svg>
