<svg xmlns="http://www.w3.org/2000/svg" xmlns:xlink="http://www.w3.org/1999/xlink" version="1.1" width="256" height="256" viewBox="0 0 256 256" xml:space="preserve">

<defs>
</defs>
<g style="stroke: none; stroke-width: 0; stroke-dasharray: none; stroke-linecap: butt; stroke-linejoin: miter; stroke-miterlimit: 10; fill: none; fill-rule: nonzero; opacity: 1;" transform="translate(1.4065934065934016 1.4065934065934016) scale(2.81 2.81)" >
	<path d="M 79.594 0 H 10.407 c -1.104 0 -2 0.896 -2 2 v 86 c 0 1.104 0.896 2 2 2 h 14.248 c 0.769 0 1.47 -0.441 1.803 -1.135 c 0.966 -2.013 2.947 -3.264 5.169 -3.264 s 4.203 1.251 5.169 3.264 C 37.128 89.559 37.83 90 38.599 90 h 12.803 c 0.77 0 1.471 -0.441 1.804 -1.135 c 0.965 -2.013 2.945 -3.264 5.168 -3.264 s 4.203 1.251 5.17 3.264 C 63.876 89.559 64.576 90 65.346 90 h 14.248 c 1.104 0 2 -0.896 2 -2 V 2 C 81.594 0.896 80.698 0 79.594 0 z M 70.126 67.246 H 50.044 c -1.311 0 -2.375 -1.063 -2.375 -2.375 s 1.063 -2.375 2.375 -2.375 h 20.082 c 1.311 0 2.375 1.063 2.375 2.375 S 71.437 67.246 70.126 67.246 z M 70.126 51.367 H 19.875 c -1.311 0 -2.375 -1.063 -2.375 -2.375 c 0 -1.311 1.063 -2.375 2.375 -2.375 h 50.251 c 1.311 0 2.375 1.063 2.375 2.375 C 72.5 50.304 71.437 51.367 70.126 51.367 z M 70.126 35.489 H 19.875 c -1.311 0 -2.375 -1.063 -2.375 -2.375 c 0 -1.311 1.063 -2.375 2.375 -2.375 h 50.251 c 1.311 0 2.375 1.063 2.375 2.375 C 72.5 34.426 71.437 35.489 70.126 35.489 z M 70.126 19.611 H 19.875 c -1.311 0 -2.375 -1.063 -2.375 -2.375 c 0 -1.311 1.063 -2.375 2.375 -2.375 h 50.251 c 1.311 0 2.375 1.063 2.375 2.375 C 72.5 18.548 71.437 19.611 70.126 19.611 z" style="stroke: none; stroke-width: 1; stroke-dasharray: none; stroke-linecap: butt; stroke-linejoin: miter; stroke-miterlimit: 10; fill: rgb(0,0,0); fill-rule: nonzero; opacity: 1;" transform=" matrix(1 0 0 1 0 0) " stroke-linecap="round" />
</g>
</svg>