<svg xmlns="http://www.w3.org/2000/svg" width="192" height="156.01" viewBox="0 0 192 156.01">
  <g id="twitter" transform="translate(0 -23.99)">
    <g id="Group_59" data-name="Group 59">
      <path id="Path_26" data-name="Path 26" d="M60.312,180C132.768,180,172.4,119.964,172.4,67.992c0-1.68,0-3.384-.072-5.064A80.221,80.221,0,0,0,192,42.5a79.9,79.9,0,0,1-22.668,6.216,39.612,39.612,0,0,0,17.364-21.8,78.4,78.4,0,0,1-25.044,9.516A39.432,39.432,0,0,0,94.5,72.36,111.9,111.9,0,0,1,13.3,31.212,39.468,39.468,0,0,0,25.512,83.8,39.876,39.876,0,0,1,7.68,78.9v.54a39.456,39.456,0,0,0,31.584,38.616,38.436,38.436,0,0,1-10.38,1.38,38.759,38.759,0,0,1-7.368-.684,39.4,39.4,0,0,0,36.8,27.324A79.056,79.056,0,0,1,9.36,162.96,75.836,75.836,0,0,1,0,162.42,112.128,112.128,0,0,0,60.312,180Z"/>
    </g>
  </g>
</svg>
